<svg xmlns="http://www.w3.org/2000/svg" viewBox="0 0 64 64" width="64" height="64">
  <defs><linearGradient id="g" x1="0" y1="0" x2="1" y2="1"><stop offset="0" stop-color="#7c5cff"/><stop offset=".55" stop-color="#22d3ee"/><stop offset="1" stop-color="#ff4fa3"/></linearGradient></defs>
  <rect width="64" height="64" rx="16" fill="url(#g)"/>
  <path d="M21 21h22c4.6 0 8.4 3.3 9.2 7.8l1.8 10.4c.7 3.9-2.3 7.3-6.2 7.3-1.9 0-3.7-.8-5-2.2L39.6 41H24.4l-3.2 3.3c-1.3 1.4-3.1 2.2-5 2.2-3.9 0-6.9-3.4-6.2-7.3l1.8-10.4C12.6 24.3 16.4 21 21 21z" fill="#fff"/>
  <path d="M22 27v8M18 31h8" stroke="#0b0d1c" stroke-width="3" stroke-linecap="round"/>
  <circle cx="42.5" cy="29.5" r="2.4" fill="#0b0d1c"/><circle cx="47.5" cy="34.5" r="2.4" fill="#0b0d1c"/>
</svg>
